<?xml version="1.0" encoding="UTF-8"?>
<svg id="Layer_1" data-name="Layer 1" xmlns="http://www.w3.org/2000/svg" viewBox="0 0 401.31 448.89">
  <defs>
    <style>
      .cls-1 {
        fill: #cea1ca;
      }
    </style>
  </defs>
  <g id="ukrQ2w">
    <path class="cls-1" d="M6.23,2.12c.34-2.82-1-2.82-.66,0h.66ZM7.6,7.55c9.33,38.6,28.2,75.23,50.75,107.7,22.41,32.27,49.36,61.4,80.23,85.69-3.04-11.89-10.74-23.39-18.04-33.19-9.57-12.85-21.2-23.48-31.85-35.33C56.25,96.28,24.08,53.98,8.28,7.55c-.29-.86-1.13-4.77-1.7-4.76-1.35,1.58.78,3.77,1.02,4.76ZM192.2,266.08l18.32,7.13c-24.73-25.06-49.8-49.77-76-73.3-8.7-7.81-18.25-14.75-26.83-22.71C59.44,132.49,20.05,74.28,4.87,9.59l-2.61,11.29c-1.39,16.69-3.97,36.84-.62,53.35,1.35,6.64,17.18,15.11,20.89,21.19l-19.69-11.86c5.88,31.05,19.99,59.98,37.98,85.66l33.28,18.49c-6.88-.26-13.77-4.24-20.51-5.96-.7-.18-2.12-1.04-2.56-.16,11.65,10.48,24.32,22.85,40.46,25.37,6.85,1.07,14.08.65,20.95,1.45,35.75,4.18,51.2,26.68,73.64,50.88-28.29-6.65-59.39-6.22-87.55,1.01-18.84,4.84-36.07,14.98-55.65,17.3l25.45-54.95L.14,334.62c37.46,1.29,72.21-14.44,107.76-23.55,18.44-4.73,33.26-7.88,52.09-1.57,10.19,3.42,18.65,9.53,26.78,16.31-4.06-12.94-14.56-23.85-27.15-28.83-31.61-12.5-82.53,10.17-114.4,18.6-5.97,1.58-15.17,4.33-21.07,4.73-1,.07-1.89.57-1.6-.93l13.06-26.64c47.56-25.74,102.76-41.71,156.59-26.65ZM239.02,121.54c-1.45-1.45-3.05,1.8-2.72,3.4-.62.56-3.21-2.2-4.06-1.35-1.19,1.18,2.79,3.9,2.03,4.74-1.43-.34-4.87,1.19-3.4,2.72.93.96,6.27-2.35,4.76,3.39,3.05.85,2.37-2.36,2.73-2.7.3-.29,6.54,2.22,2.7-2.72,1.48.07,2.52-.55,3.38-1.7-.5-1.01-2.04-.72-2.52-1.2-.43-.44-.24-1.77-.83-2.26s-1.97.54-2.06.41c-.24-.32.23-2.48,0-2.72ZM204.42,145.97c.02-1.57,3.84-12.35.34-11.53-1.51.35-2.44,8.48-3.07,10.17l-2.74-6.75-2.66.98,2.69,7.81c-.63.7-6.4-4.64-7.46-5.1-.95-.41-1.88-.06-2.03.7-.4,1.93,6.71,5.07,7.46,7.11-2.16-.03-9.04-1.95-10.17.36-.35,1.23,1.03,1.34,1.86,1.5,1.84.35,8.79-.47,5.4,1.71-1.1.71-7.76,2.71-5.91,4.58.72.73,7.19-2.11,8.49-2.7.24,1.99-5.82,7.39-4.42,8.8,1.8,1.81,5.16-5.88,6.78-6.1.2,2.28-2.08,9.66.36,10.85,1.24.61,1.17-1.31,1.34-2.02.73-3.09.46-6.88,2.05-9.5.47,1.13,3.37,11.93,5.76,9.49,1.13-1.15-3.48-8.16-2.7-10.18,2.34,1.5,5.75,5.75,8.47,6.12,1.02.14,1.21.01,1.03-1.04-.42-2.4-6.68-5.48-8.16-7.79,1.86-.8,10.38,2.59,10.86.32.54-2.56-8.5-2.62-10.17-3.05l7.03-3.48c2.18-1.36,2.99-3.24-.53-2.57-2.49.47-4.65,2.27-7.17,2.66,1.27-1.46,2.89-2.89,3.84-4.64.34-.62,1.47-2.26.91-2.82-1.63-1.63-5.94,5.57-7.46,6.1ZM283.7,136.63c-2.61-1.63-1.55,1.69-2.21,2.59-.64.88-2.16.61-3.1.65.51.73,1.74,6.11,2.37,6.09.17,0,1.18-1.56,2.02-1.35,3.82,5.57,2.82-.43,3.06-.68s2.47.24,2.73,0c.57-.53-2.38-4.47-.68-6.1-4.07,1.28-3.19-.58-4.19-1.21ZM253.28,143.27c-1.02.76.03,3.73,1.69,3.39,2.39-.5.24-4.83-1.69-3.39ZM238.49,146.5c-.38-.22-.42-1.59-1.23-1.83-.26-.08-3.54.49-3.66.63-.34.39.67,2.18.53,2.97-.19,1.1-2.28,1.57-1.88,3.13,4.37-1.33,3.48,2.29,4.1,2.7,2.45,1.62,1.87-1.88,2.01-2.02s3.71,1.58,3.1-.72c-.48-1.81-1.85-1.52.95-3.68-.86-1.59-2.95-.59-3.92-1.17ZM311.1,155.65c.4-.45,2.12-.21,2.59-1.21-1.42-1.3-.33-3.87-1.36-4.71-.26-.21-3.52-1.77-3.72-1.72-1.03.24-.43,4.22-4.42,2.72-.42,1.52,1.62,1.96,1.76,3.02.09.66-.78,2.72-.41,3.08.19.19,5.24.87,5.43.67.14-.16-.27-1.39.14-1.85ZM277.03,158.88c-.09-.1.08-1.78-.36-2.69-1.49-3.15-2.19.51-3.04,1.03s-1.83-.59-2.71-.06c-1.81,1.09.93,2.43.69,3.4-.15.61-1.7.85-1.89,1.16-1.87,3.14,3.47,1.44,3.92,1.9.28.29-.87,4.29,1.91,2.56,1.01-.63.13-2.48,4.19-1.2.64-1.25-1.34-2.89-1.33-3.05.02-.57,3.67-1.78,2.69-3.04-.57-.73-3.93.15-4.07,0ZM239.02,168.37c-.27-.22-1.57,0-2.05.32-1.49,1.01,1.66,9.56,2.04,11.56-2.13-.38-7.89-7.15-9.15-7.12-.91.02-1.17,1.62-.67,2.69.88,1.93,4.89,3.17,5.77,5.43-2.14.4-6.86-2.39-8.43-2.01-.87.21-1.67,1.68-.38,2.34l7.45,3.06c-16.04,1.5-6.42,5.3,2.71,2.05.99,1-7.84,7.76-6.1,9.49,1.49,1.49,5.99-5,7.46-5.43.78,1.45-2.9,8.87.34,8.14,1.68-1.74,1.73-4.33,2.37-6.46.22-.71.24-2.19,1.36-1,.72.77.8,9.07,3.73,9.5,2.54-.53-1.67-8.97-1-10.85,7.41,7.85,11.15,6.46,2.71-2.03,1.53-.14,8.09,2.06,8.82,1.35,2.61-2.58-7.62-3.91-8.82-4.4.82-1.28,12.88-3.03,10.17-5.77l-12.21,2.7c.83-1.47,7.01-7.36,6.78-8.47-.77-3.74-6.53,4.49-7.46,5.08-.29-2.25,2.42-7.38,2-9.1-1.32-5.42-4.18,5.76-4.39,6.38-.23.65-.08,1.56-.99,1.36-.7-1.25-1.7-8.53-2.05-8.82ZM294,181.26v-11.88c0-1.17-2.71-1.17-2.71,0v14.59c-2.11-1.08-4.21-8.11-5.79-8.81-.77-.34-1.88-.39-1.69,1,.33,2.43,3.18,5.16,3.39,7.8-2.13-1.36-4.1-3.66-6.07-5.12-3.22-2.38-3.61-.23-1.71,2.39,1.34,1.85,5.36,3.51,6.43,6.12-2.46.42-8.84-3.72-10.5-3.39-.86.17-1.58,1.89-.34,2.36l8.12,3.74c-1.64.07-8.79-.29-9.49.69-.39.54.65,2.03,1.01,2.03h12.56l-12.2,6.46c-.8.3-.91,2.13-.69,2.36,1.18,1.22,11.33-5.24,13.57-5.42-1.05,1.61-8.91,10.07-7.46,11.53,1.73,1.74,5.13-6.04,7.46-5.42.45.48-3.55,10.75.62,8.08,1.05-.67,1.88-9.85,4.13-10.8-.16,2.24.61,15.2,2.39,15.6.96.22,1.63-.82,1.71-1.68.2-2.07-1.22-7.64-1.37-10.2-.1-1.69.03-3.4,0-5.08l7.15,11.5c.62-.03,1.62.36,1.68-.32.24-3.22-5.01-8.39-5.43-11.87.43-.51,8.59,7.79,10.5,8.15,1,.19,1.22-.04,1.04-1.04-.5-2.78-5.53-4.54-6.8-7.11,1.93-.17,10.57,3.65,11.53,2.7.65-.64-.16-1.98-1.15-2.58-2.93-1.77-10.25-2.55-13.78-4.21,1.74-2.47,6.31-1.09,9.15-1.36,1.67-.16,10.18-.91,7.82-3.38-.62-.65-11.59,1.45-13.57.67.57-1.83,12.73-5.57,10.17-8.13-5.07.81-9.28,4.79-14.24,6.1l8.02-9.96c1.48-2.36-.57-3.04-2.5-1.13-2.74,2.71-4.85,6.54-7.9,9.06-1.14-1.91,2.89-9.7,1.7-10.85-2.58-2.5-2.93,6.44-4.75,6.79ZM190.16,225.37v-10.86l4.84,11.11c.23,1.06,2.23,1.48,2.62,1.1.91-.89-5.06-12.51-4.74-14.92.89-.96,8.02,7.97,11.18,8.16,1.07.06,1.18.1,1.02-1.03-2.6-3.35-6.67-5.2-8.8-8.84,2.41-.28,13.08,3.21,14.23,1.7.22-1.14-.25-1.42-1.17-1.87-3.36-1.63-9.06-.89-12.39-3.22,1.48-.68,9.66-.97,10.13-1.75,2.05-3.34-4.19-1.54-5.81-1.38-.76.07-2.44.62-2.28-.59,2.56-1.24,8.47-2.45,10.19-4.41.74-.84.44-1.55-.37-1.71-2.96-.58-11.55,5.27-15.24,5.1.92-2.28,10.66-10.62,8.8-12.56-2.11-2.2-8.73,9.77-10.85,10.18.05-4.6,2.74-9.85,3.12-14.23.2-2.28-1.76-3.04-2.61-1.2-1.4,3.04-1.61,9.24-2.56,12.72-.95-.42-1.1-3.42-1.27-4.49-.19-1.21-.07-2.44-.09-3.65h-2.03s-.67,4.75-.67,4.75c-.58-2.05-2.17-7.7-4.08-8.48-.68-.28-1.28.33-1.36.7-.52,2.55,5.14,11.09,4.75,14.58-3.02-2-6.99-7.12-10.17-8.49-.95-.41-1.87-.07-2.03.7-.44,2.11,10.45,8.22,10.52,11.17-4.81-1.18-9.61-3.53-14.42-4.58-.81-.17-2.5-.83-2.22.86.45,2.71,8.48,3.89,10.86,4.42l-9.5,1.35c-2.31,2.62,8.99,2.11,10.18,2.04l-8.99,4.23-1.86,2.19c1.07,1.54,1.21.64,2.35.34,4.69-1.22,9.18-4.26,13.93-5.41-.76,1.53-10.13,11.04-8.82,12.2,2.71,2.41,6.44-7.82,9.49-7.46-.22,4.62-2.69,8.84-2.03,13.57h2.02s3.4-13.57,3.4-13.57c.04,1.8-.2,10.8.7,11.53.19.16,1.46-.09,2.02,0ZM331.33,220.62c-1.06-2.71,2.48-1.92,2.72-3.07.17-.82-1.21-1.6-1.22-2.03,0-.56,2.7-2.04,1.89-3.72-1.14-.43-4.12,1.09-4.71.66-.33-.24-.28-2.45-1.06-2.7-1.86-.59-1.51,1.17-2.2,1.35s-2.06-.12-2.22.02c-.82.7,1.79,3.43,1.35,4.05-.25.35-2.83.2-2.02,2.73,5.93-1.38,3.03.21,4.75,1.7.46.4,1.93.69,2.71,1.02l47.5,99.75c-23.36-3.32-45.29-12.38-67.87-18.66-17.86-4.97-41.39-10.96-59.75-7.49-16.76,3.17-31.07,15.51-36.62,31.58,7.09-5.69,13.87-11.06,22.4-14.58,21.42-8.84,37.32-5.15,58.64.38,34.81,9.03,68.84,24.34,105.58,23.01.47-.43-1.14-2.96-1.49-3.59-19.48-34.89-42.95-69.57-63.73-103.96-.58-.96-.06-1.98-.32-2.39-.49-.76-3.6-3.73-4.36-4.06ZM261.47,213.11c-.2-.18.04-2.13-1.07-2.66-1.66-.79-1.59,1.18-2.19,1.34-.69.18-2.06-.12-2.22.02-.42.36.77,2.59.69,2.7-.14.18-4.61.79-2.72,2.72.28.29,3.71-.32,4.05.03.22.22-.28,2.36.67,3.07,2.59,1.93,1.91-1.48,2.11-1.67.46-.43,3.01.21,3.35-.08.28-.24-.75-1.71-.61-2.34.2-.91,3.65-.98,1.3-3.46-.65-.39-2.72.89-3.35.33ZM230.87,211.12c-1.28-.92-1.74,1.64-2.16,1.89-.79.46-2.3-.05-2.58.14-.23.17.47,1.76.36,2.37-.12.67-.88,1.27-1.05,2.03-.52,2.35,3.28.19,3.4.35.22.27-.01,3.75,1.03,4.08,3.19,1.02-.13-4.07,4.41-2.73.55-1.25-1.21-2.62-1.2-3.06.02-1,3.76-2.38.84-3.01-4.05-.87-2.29-1.51-3.05-2.06ZM310.91,215.92c-1.82-1.37-4.49,3.84-4.66,5.77-.17,1.88,1.44.44,2.54,1.11.42.26.55,1.74,1.18,1.9.32.08,4.06-1.82,4.25-2.44.07-.21.3-4.2.14-4.34-.14-.13-1.84.25-2.74-.34-.56-.37-.54-1.52-.71-1.65ZM323.28,235.45c-.28-.24-.18-2.41-1.13-2.62-.23-.05-4.22,1.58-4.42,1.71-.34.23-.77,4.84-1.34,5.76,3.47-1.25,2.59,2.41,3.75,2.71,1.4.36,1.37-1.69,1.78-1.97,1.05-.71,4.41,3.37,3.98-5.49-.73-.11-2.16.3-2.62-.1ZM51.04,340.05c10.17-1.71,20.37-3.49,30.41-5.89,31.51-7.51,51.2-21.23,84.52-6.91,2.14.92,11.68,6.52,12.43,6.59,1.34.13,2.44-1.67,2.31-2.94-.17-1.72-7.34-5.66-9.1-6.57-33.66-17.5-53.59-4.82-85.45,5.05-11.13,3.44-22.46,6.26-33.78,9.01l-1.35,1.66ZM350.33,338.7c-12.44-3.1-24.92-6.16-37.16-10.01-20.6-6.47-36.08-15.56-58.78-12.31-8.29,1.19-26.64,7.07-32.58,12.89-1.99,1.95-.81,4.77,1.16,4.58.84-.08,10.98-6.04,13.36-7.02,33.37-13.67,52.74.02,84.14,7.46,7.58,1.8,17.24,4.15,24.86,5,1.06.12,4.57.71,5-.59ZM161.65,333.94c2.11-1.78-9.19-3.75-10.03-3.88-13.85-2.15-34.44-.21-47.52,5.07-1.03.41-1.84-.4-1.49,1.53,19.35-3.93,39.44-5.73,59.04-2.71ZM298.07,335.31c-19.92-6.44-42.7-9.54-62.44-1.03.03.89,12.52-1.63,13.89-1.72,6.36-.43,15.37-.36,21.77,0,8.31.46,16.9,3,24.89,3.68.99.08,1.53.48,1.89-.93ZM382.9,341.41l-34.26,14.95c-35.29-9.44-75.79-20.64-112.67-16.32-5.31.62-7.36,5.37-11.25,8.43-14.12,11.1-33.96,11.1-48.07,0-3.26-2.56-6.46-7.97-10.56-8.44-37.24-4.29-77.75,6.78-113.36,16.33-10.33-2.96-20.48-10.3-30.38-13.75-1.08-.38-2.03-.7-3.2-.52l29.87,27.46c1.55.68,3.3.44,4.92.19,8.94-1.38,20.99-6.03,30.48-8.19,25.31-5.77,52.87-10.59,78.81-8.47,18.28,22.49,56.75,22.57,74.93,0,37.81-2.93,75.56,7.72,111.86,16.89,2.46.24,3.88-1.95,5.76-3.11l27.13-25.45Z"/>
  </g>
  <g>
    <path class="cls-1" d="M89.29,447.74v.51h-12.74l-7.8-15.67h-5.51v15.67h-11.88v-46.37h18.69c3.61,0,6.74.54,9.39,1.61s4.71,2.66,6.16,4.76c1.45,2.1,2.18,4.65,2.18,7.64,0,3.57-.67,6.37-2.02,8.42s-3.33,3.72-5.94,5.02l9.46,18.41ZM63.24,422.93h6.81c1.93,0,3.39-.48,4.38-1.45s1.48-2.38,1.48-4.25-.51-3.24-1.53-4.24-2.46-1.5-4.33-1.5h-6.81v11.43Z"/>
    <path class="cls-1" d="M125.57,434.85h-20.92c.45,1.53,1.28,2.71,2.5,3.55s2.73,1.26,4.54,1.26c1.53,0,2.98-.25,4.35-.76s2.53-1.34,3.49-2.48l5.06,6.66c-.76,1.02-1.81,1.97-3.14,2.85s-2.89,1.6-4.7,2.15c-1.8.55-3.75.83-5.83.83-3.69,0-6.91-.76-9.65-2.29-2.74-1.53-4.82-3.57-6.26-6.13-1.43-2.56-2.15-5.33-2.15-8.33v-1.18c0-3.33.62-6.34,1.85-9.03s3.11-4.82,5.64-6.4c2.53-1.58,5.65-2.37,9.36-2.37,3.23,0,6.03.67,8.42,2.01,2.39,1.34,4.22,3.27,5.51,5.8s1.93,5.53,1.93,9.01v4.87ZM109.61,422.39c-1.57,0-2.75.47-3.53,1.4s-1.31,2.21-1.56,3.82h9.94v-.92c.08-2.87-1.53-4.3-4.84-4.3Z"/>
    <path class="cls-1" d="M158.91,444.54c.23,1.16.61,2.21,1.11,3.17v.54h-11.37c-.36-.74-.68-1.73-.96-2.96-.91,1.15-2.01,2.03-3.28,2.66s-2.91.94-4.9.94-4.01-.44-5.8-1.31-3.21-2.1-4.27-3.68-1.59-3.38-1.59-5.4c0-3.61,1.33-6.4,4-8.36s6.76-2.95,12.28-2.95h2.96v-1.59c0-1.38-.29-2.43-.88-3.15s-1.52-1.08-2.82-1.08c-1.13,0-1.96.26-2.5.78s-.81,1.37-.81,2.56h-11.4c0-2.27.63-4.28,1.88-6.03,1.25-1.75,3.04-3.11,5.35-4.08,2.31-.97,5.01-1.45,8.09-1.45,2.8,0,5.3.47,7.5,1.42,2.2.94,3.92,2.36,5.17,4.24s1.88,4.17,1.88,6.86v13.53c0,2.4.12,4.18.35,5.33ZM145.29,439.96c.82-.41,1.42-.94,1.8-1.58v-5.03h-3.22c-1.66,0-2.84.46-3.55,1.39s-1.07,2.02-1.07,3.3c0,.76.3,1.38.89,1.85s1.33.7,2.2.7c1.15,0,2.13-.21,2.95-.62Z"/>
    <path class="cls-1" d="M195.02,399.34v48.91h-10.25l-.57-3.82c-2.19,2.97-4.93,4.46-8.22,4.46-2.87,0-5.29-.74-7.28-2.23-1.99-1.49-3.48-3.55-4.49-6.18s-1.51-5.65-1.51-9.04v-.67c0-3.55.5-6.64,1.5-9.28,1-2.64,2.49-4.69,4.49-6.15,2-1.45,4.45-2.18,7.36-2.18s5.48,1.21,7.52,3.63v-17.45h11.46ZM181.69,439.05c.8-.45,1.42-1.08,1.86-1.91v-12.13c-.85-1.78-2.39-2.68-4.62-2.68-3.23,0-4.84,2.81-4.84,8.44v.67c0,2.61.36,4.64,1.07,6.1s1.95,2.18,3.71,2.18c1.08,0,2.02-.22,2.82-.67Z"/>
    <path class="cls-1" d="M203.27,432.78v-9.27h19.71v9.27h-19.71Z"/>
    <path class="cls-1" d="M261.96,411.5h-13.82v36.75h-11.91v-36.75h-13.47v-9.62h39.2v9.62Z"/>
    <path class="cls-1" d="M294.25,416.5c2.06,2.23,3.09,5.8,3.09,10.7v21.05h-11.46v-21.11c0-1.85-.38-3.11-1.15-3.79s-1.92-1.02-3.47-1.02c-1.93,0-3.32.51-4.17,1.53v24.39h-11.4v-48.91h11.4v18.09c1.08-1.36,2.36-2.41,3.82-3.15s3.07-1.11,4.81-1.11c3.63,0,6.48,1.11,8.53,3.34Z"/>
    <path class="cls-1" d="M312.37,399.94c.96.49,1.7,1.17,2.25,2.04s.81,1.86.81,2.96-.27,2.12-.8,2.99-1.28,1.55-2.25,2.04c-.97.49-2.05.73-3.26.73s-2.32-.24-3.28-.73c-.96-.49-1.7-1.17-2.25-2.04s-.81-1.87-.81-2.99.27-2.09.81-2.96,1.29-1.55,2.25-2.04c.96-.49,2.05-.73,3.28-.73s2.29.24,3.25.73ZM303.45,448.25v-34.46h11.46v34.46h-11.46Z"/>
    <path class="cls-1" d="M323.52,431.26c-2.21-1.77-3.31-4.1-3.31-6.99,0-2.02.57-3.87,1.7-5.56,1.14-1.69,2.79-3.04,4.95-4.04,2.17-1.01,4.73-1.51,7.71-1.51s5.81.47,8.14,1.4c2.32.93,4.11,2.26,5.37,3.96s1.88,3.7,1.88,5.97h-11.43c0-1.32-.29-2.26-.88-2.82s-1.62-.84-3.1-.84c-.98,0-1.82.24-2.53.73s-1.07,1.17-1.07,2.04c0,1.68,1.82,2.8,5.45,3.38,2.59.4,4.86.99,6.8,1.77,1.94.77,3.53,1.93,4.78,3.46s1.86,3.51,1.86,5.96c0,2.04-.63,3.87-1.88,5.49s-3.04,2.9-5.35,3.84-5,1.4-8.06,1.4-5.94-.58-8.26-1.74c-2.32-1.16-4.1-2.64-5.32-4.46s-1.83-3.67-1.83-5.56h10.6c.04,1.34.51,2.35,1.4,3.03.89.68,2.13,1.02,3.73,1.02,1.3,0,2.29-.25,2.98-.75s1.03-1.17,1.03-2.02c0-.51-.2-.94-.59-1.29s-1.05-.68-1.97-.99-2.27-.65-4.03-1.03c-3.63-.79-6.55-2.06-8.76-3.84Z"/>
  </g>
</svg>